<svg xmlns="http://www.w3.org/2000/svg" id="prefix__add_circle-24px" width="31" height="31" viewBox="0 0 31 31">
    <path id="prefix__Path_2131" d="M0 0h31v31H0z" data-name="Path 2131" style="fill:transparent"/>
    <path id="prefix__Path_2132" d="M14.917 2a12.917 12.917 0 1 0 12.916 12.917A12.921 12.921 0 0 0 14.917 2zm5.167 14.208h-3.876v3.875a1.292 1.292 0 1 1-2.583 0v-3.875H9.75a1.292 1.292 0 0 1 0-2.583h3.875V9.75a1.292 1.292 0 0 1 2.583 0v3.875h3.875a1.292 1.292 0 0 1 0 2.583z" data-name="Path 2132" transform="translate(.583 .583)" style="fill:#0945a5"/>
</svg>
