<svg xmlns="http://www.w3.org/2000/svg" id="prefix__delete-24px" width="31.966" height="31.966" viewBox="0 0 31.966 31.966">
    <path id="prefix__Path_4019" d="M0 0h31.966v31.966H0z" data-name="Path 4019" style="fill:none"/>
    <path id="prefix__Path_4020" d="M6.332 24.311A2.672 2.672 0 0 0 9 26.974h10.651a2.672 2.672 0 0 0 2.664-2.664V10.991a2.672 2.672 0 0 0-2.664-2.664H9a2.672 2.672 0 0 0-2.664 2.664zM22.315 4.332h-3.33l-.946-.946A1.344 1.344 0 0 0 17.107 3H11.54a1.344 1.344 0 0 0-.932.386l-.946.946h-3.33a1.332 1.332 0 0 0 0 2.668h15.983a1.332 1.332 0 0 0 0-2.664z" data-name="Path 4020" transform="translate(1.66 .996)" style="fill:#d30000"/>
</svg>
